# xmcd
#
# Track frame offsets:
#	150
#	16350
#	34025
#	53250
#	66672
#	83700
#	102875
#	118650
#	138225
#	158650
#	179700
#	197375
#
# Disc length: 2988 seconds
#
# Revision: 1
# Processed by: cddbd v1.5PL3 Copyright (c) Steve Scherf et al.
# Submitted via: CDex 1.50Beta5
#
DISCID=970baa0c
DTITLE=松尾清憲 - 松尾清憲ベスト
DYEAR=1987
DGENRE=Pop
TTITLE0=ムーンライト・ランデブー
TTITLE1=OH!キャロライン
TTITLE2=ふたつの片想い
TTITLE3=愛しのロージー
TTITLE4=サニー・シャイニー・モーニング
TTITLE5=サンセット・ドリーマー
TTITLE6=JULIET
TTITLE7=僕等のハックルベリーフィン
TTITLE8=30-0
TTITLE9=さよならはバニラ色
TTITLE10=ジャングリラ
TTITLE11=5月のSUICIDE
EXTD=
EXTT0=
EXTT1=
EXTT2=
EXTT3=
EXTT4=
EXTT5=
EXTT6=
EXTT7=
EXTT8=
EXTT9=
EXTT10=
EXTT11=
PLAYORDER=
